<svg version="1.1" id="Layer_1" xmlns="http://www.w3.org/2000/svg" xmlns:xlink="http://www.w3.org/1999/xlink" x="0px" y="0px"
	 width="100%" viewBox="0 0 512 512" enable-background="new 0 0 512 512" xml:space="preserve">
<path fill="#03A9F4" opacity="1.000000" stroke="none" 
	d="
M1.000001,419.000000 
	C1.000000,418.555664 1.000000,418.111328 1.394809,417.481689 
	C7.482769,417.864258 13.169653,418.803955 18.870754,418.900024 
	C25.128328,419.005524 31.445269,418.702576 37.654438,417.924255 
	C50.930676,416.260040 64.302185,414.872284 77.364853,412.099945 
	C97.572945,407.811127 116.326744,399.411621 134.072372,388.912476 
	C140.774017,384.947449 147.048233,380.260010 154.539749,375.213013 
	C105.523033,372.284668 68.504585,338.871277 58.090187,301.296967 
	C65.306786,301.867676 72.446609,303.004822 79.555260,302.835236 
	C86.827339,302.661835 94.068855,301.207550 101.323753,300.313934 
	C46.134865,284.816467 19.317278,235.902725 21.453554,195.223648 
	C28.521873,198.098160 35.392326,201.531494 42.645611,203.660645 
	C49.779922,205.754868 57.302658,206.525879 64.654953,207.877518 
	C64.866196,207.433441 65.077438,206.989365 65.288681,206.545303 
	C43.531574,190.314911 29.542530,169.034042 24.107004,142.580811 
	C18.674240,116.141014 22.912184,91.179688 36.639130,67.366028 
	C93.442017,134.414871 164.565323,171.248703 251.711807,177.452179 
	C251.867386,175.866653 252.075989,175.203583 251.970871,174.594666 
	C250.087006,163.681183 248.673935,152.699921 251.071625,141.738281 
	C253.109711,132.420654 255.777481,123.240784 258.473846,113.875694 
	C259.578644,112.716393 260.552246,111.773254 261.147949,110.632751 
	C272.792664,88.338051 289.836304,71.779472 312.918518,61.526531 
	C332.741669,52.721233 353.267151,50.513252 374.412720,55.136288 
	C394.257172,59.474861 411.406891,68.892960 425.908905,83.214012 
	C427.416687,84.702980 430.564911,85.989456 432.397980,85.458206 
	C446.295776,81.430397 460.132721,77.151733 473.823120,72.467514 
	C480.023712,70.345955 485.847687,67.123711 491.842529,64.400787 
	C492.265167,64.720268 492.687836,65.039757 493.110504,65.359245 
	C490.403229,70.744934 487.808716,76.191277 484.954620,81.498009 
	C482.469635,86.118469 479.691559,90.581322 476.909973,95.417397 
	C470.530518,101.468605 464.284180,107.216248 457.414948,113.537025 
	C464.603882,112.144920 471.407257,111.360161 477.882172,109.457664 
	C489.690826,105.987961 501.304810,101.855804 513.000000,98.000000 
	C513.000000,98.444336 513.000000,98.888672 512.667114,99.765167 
	C507.375488,106.486168 502.860443,113.198296 497.357239,118.967873 
	C488.384705,128.374741 479.064911,137.505295 469.302979,146.082474 
	C463.986145,150.754013 459.984741,154.770935 460.745758,162.822266 
	C461.547943,171.308975 460.841736,180.042557 459.890839,188.567474 
	C458.261841,203.171295 456.985901,217.940979 453.686218,232.207245 
	C445.145172,269.134735 430.524475,303.646698 409.341919,335.218628 
	C395.949249,355.180054 381.119049,373.956726 362.772369,389.666992 
	C353.182983,397.878387 343.817413,406.493683 333.464325,413.642792 
	C306.765472,432.079102 277.768250,445.821808 246.333817,454.400177 
	C225.602982,460.057617 204.545181,463.964111 183.178711,464.782227 
	C157.468918,465.766724 131.787186,465.194672 106.247704,460.219849 
	C81.487541,455.396790 57.698780,448.015930 34.971764,437.327820 
	C23.345966,431.860443 12.305190,425.149109 1.000001,419.000000 
z"/>
<path fill="#FFFFFF" opacity="1.000000" stroke="none" 
	d="
M513.000000,97.531342 
	C501.304810,101.855804 489.690826,105.987961 477.882172,109.457664 
	C471.407257,111.360161 464.603882,112.144920 457.414948,113.537025 
	C464.284180,107.216248 470.530518,101.468605 477.221375,95.274185 
	C488.478424,84.195625 493.243958,70.218597 499.824860,55.694374 
	C497.541962,56.828918 496.437897,57.301884 495.407227,57.901131 
	C478.266724,67.867050 459.837402,74.535027 440.773834,79.748077 
	C434.962585,81.337204 430.221252,81.782478 426.406311,76.065628 
	C425.099396,74.107170 422.756744,72.811821 420.811798,71.311394 
	C391.259888,48.513748 358.303375,43.267483 322.993713,53.684105 
	C302.049072,59.862942 284.749786,72.349258 271.787933,89.994057 
	C266.378571,97.357727 262.656097,105.960556 258.166656,113.999954 
	C255.777481,123.240784 253.109711,132.420654 251.071625,141.738281 
	C248.673935,152.699921 250.087006,163.681183 251.970871,174.594666 
	C252.075989,175.203583 251.867386,175.866653 251.711807,177.452179 
	C164.565323,171.248703 93.442017,134.414871 36.639130,67.366028 
	C22.912184,91.179688 18.674240,116.141014 24.107004,142.580811 
	C29.542530,169.034042 43.531574,190.314911 65.288681,206.545303 
	C65.077438,206.989365 64.866196,207.433441 64.654953,207.877518 
	C57.302658,206.525879 49.779922,205.754868 42.645611,203.660645 
	C35.392326,201.531494 28.521873,198.098160 21.453554,195.223648 
	C19.317278,235.902725 46.134865,284.816467 101.323753,300.313934 
	C94.068855,301.207550 86.827339,302.661835 79.555260,302.835236 
	C72.446609,303.004822 65.306786,301.867676 58.090187,301.296967 
	C68.504585,338.871277 105.523033,372.284668 154.539749,375.213013 
	C147.048233,380.260010 140.774017,384.947449 134.072372,388.912476 
	C116.326744,399.411621 97.572945,407.811127 77.364853,412.099945 
	C64.302185,414.872284 50.930676,416.260040 37.654438,417.924255 
	C31.445269,418.702576 25.128328,419.005524 18.870754,418.900024 
	C13.169653,418.803955 7.482769,417.864258 1.394809,417.148193 
	C1.000000,278.392517 1.000000,139.785004 1.000000,1.088756 
	C171.666641,1.088756 342.333313,1.088756 513.000000,1.088756 
	C513.000000,33.090096 513.000000,65.076385 513.000000,97.531342 
z"/>
<path fill="#FFFFFF" opacity="1.000000" stroke="none" 
	d="
M1.000001,419.468658 
	C12.305190,425.149109 23.345966,431.860443 34.971764,437.327820 
	C57.698780,448.015930 81.487541,455.396790 106.247704,460.219849 
	C131.787186,465.194672 157.468918,465.766724 183.178711,464.782227 
	C204.545181,463.964111 225.602982,460.057617 246.333817,454.400177 
	C277.768250,445.821808 306.765472,432.079102 333.464325,413.642792 
	C343.817413,406.493683 353.182983,397.878387 362.772369,389.666992 
	C381.119049,373.956726 395.949249,355.180054 409.341919,335.218628 
	C430.524475,303.646698 445.145172,269.134735 453.686218,232.207245 
	C456.985901,217.940979 458.261841,203.171295 459.890839,188.567474 
	C460.841736,180.042557 461.547943,171.308975 460.745758,162.822266 
	C459.984741,154.770935 463.986145,150.754013 469.302979,146.082474 
	C479.064911,137.505295 488.384705,128.374741 497.357239,118.967873 
	C502.860443,113.198296 507.375488,106.486168 512.667114,100.098663 
	C513.000000,237.607529 513.000000,375.215057 513.000000,512.911255 
	C342.333344,512.911255 171.666687,512.911255 1.000008,512.904419 
	C1.000000,481.910828 1.000000,450.924072 1.000001,419.468658 
z"/>
<path fill="#03A9F4" opacity="1.000000" stroke="none" 
	d="
M258.473846,113.875687 
	C262.656097,105.960556 266.378571,97.357727 271.787933,89.994057 
	C284.749786,72.349258 302.049072,59.862942 322.993713,53.684105 
	C358.303375,43.267483 391.259888,48.513748 420.811798,71.311394 
	C422.756744,72.811821 425.099396,74.107170 426.406311,76.065628 
	C430.221252,81.782478 434.962585,81.337204 440.773834,79.748077 
	C459.837402,74.535027 478.266724,67.867050 495.407227,57.901131 
	C496.437897,57.301884 497.541962,56.828918 499.824860,55.694374 
	C493.243958,70.218597 488.478424,84.195625 477.354431,94.970619 
	C479.691559,90.581322 482.469635,86.118469 484.954620,81.498009 
	C487.808716,76.191277 490.403229,70.744934 493.110504,65.359245 
	C492.687836,65.039757 492.265167,64.720268 491.842529,64.400787 
	C485.847687,67.123711 480.023712,70.345955 473.823120,72.467514 
	C460.132721,77.151733 446.295776,81.430397 432.397980,85.458206 
	C430.564911,85.989456 427.416687,84.702980 425.908905,83.214012 
	C411.406891,68.892960 394.257172,59.474861 374.412720,55.136288 
	C353.267151,50.513252 332.741669,52.721233 312.918518,61.526531 
	C289.836304,71.779472 272.792664,88.338051 261.147949,110.632751 
	C260.552246,111.773254 259.578644,112.716393 258.473846,113.875687 
z"/>
</svg>